<svg width="237" height="445" viewBox="0 0 237 445" fill="none" xmlns="http://www.w3.org/2000/svg">
<path d="M3.17631 271.456C0.950581 273.806 -0.010423 276.585 8.51983e-05 279.672C0.0142618 283.836 0.226899 288.008 0.973245 292.103C2.03985 297.956 6.62919 301.751 12.5781 302.036C18.0861 302.299 23.3398 301.514 28.0564 298.429C31.4201 296.229 33.9413 293.14 36.6257 290.226C36.7641 290.076 36.8855 289.909 37.0275 289.763C41.3052 285.348 41.9145 280.376 39.3356 274.886C37.4009 270.768 34.8326 267.219 30.8075 264.878C27.1861 262.772 23.3342 262.253 19.3468 263.37C14.2872 264.788 9.47738 266.83 5.12376 269.829C4.45396 270.291 3.8644 270.869 3.17631 271.456Z" fill="#F0F2F5"/>
<path d="M13.9249 284V283.217L17.3788 277.752H17.9468V278.965H17.563L14.9534 283.094V283.155H19.6046V284H13.9249ZM17.6244 285.611V283.762V283.397V277.752H18.5301V285.611H17.6244ZM21.2884 285.611L24.8038 278.658V278.596H20.7512V277.752H25.7862V278.642L22.2862 285.611H21.2884Z" fill="black"/>
<path d="M228.406 322.334C227.883 324.405 227.142 326.38 226.027 328.219C224.446 330.827 222.22 332.418 219.182 332.88C216.932 333.222 214.714 333.052 212.491 332.656C207.351 331.739 203.256 328.901 199.317 325.692C196.438 323.348 195.477 320.527 196.585 316.989C197.598 313.753 198.92 310.628 199.966 307.4C201.067 304.004 202.866 302.528 207.468 302.868C209.938 303.05 212.287 303.748 214.531 304.788C218.459 306.608 222.496 308.224 225.926 310.967C228.239 312.817 229.336 315.223 229.129 318.155C229.034 319.491 228.68 320.809 228.406 322.334Z" fill="#F0F2F5"/>
<path d="M211.289 321.382C210.783 321.382 210.331 321.295 209.935 321.121C209.541 320.947 209.227 320.706 208.994 320.396C208.764 320.084 208.639 319.722 208.618 319.31H209.585C209.606 319.563 209.693 319.782 209.846 319.966C210 320.148 210.201 320.289 210.449 320.388C210.697 320.488 210.972 320.538 211.274 320.538C211.612 320.538 211.911 320.479 212.172 320.362C212.433 320.244 212.638 320.08 212.786 319.87C212.934 319.66 213.009 319.417 213.009 319.141C213.009 318.852 212.937 318.597 212.794 318.377C212.651 318.155 212.441 317.981 212.164 317.855C211.888 317.73 211.55 317.667 211.151 317.667H210.522V316.823H211.151C211.463 316.823 211.737 316.767 211.973 316.654C212.21 316.542 212.396 316.383 212.529 316.178C212.665 315.974 212.732 315.733 212.732 315.457C212.732 315.191 212.674 314.959 212.556 314.762C212.438 314.565 212.272 314.412 212.057 314.302C211.845 314.192 211.594 314.137 211.305 314.137C211.034 314.137 210.778 314.187 210.537 314.286C210.299 314.384 210.105 314.526 209.954 314.712C209.803 314.897 209.721 315.119 209.708 315.38H208.787C208.803 314.968 208.927 314.608 209.159 314.298C209.392 313.986 209.697 313.743 210.073 313.569C210.452 313.395 210.867 313.308 211.32 313.308C211.806 313.308 212.223 313.406 212.571 313.603C212.919 313.798 213.187 314.055 213.373 314.375C213.56 314.695 213.653 315.04 213.653 315.411C213.653 315.853 213.537 316.231 213.304 316.543C213.074 316.855 212.761 317.071 212.364 317.192V317.253C212.86 317.335 213.248 317.546 213.527 317.886C213.806 318.224 213.945 318.642 213.945 319.141C213.945 319.568 213.829 319.952 213.596 320.292C213.366 320.63 213.051 320.896 212.652 321.091C212.253 321.285 211.799 321.382 211.289 321.382ZM218.124 321.382C217.802 321.377 217.48 321.316 217.157 321.198C216.835 321.08 216.541 320.882 216.275 320.603C216.008 320.322 215.795 319.942 215.634 319.463C215.472 318.982 215.392 318.379 215.392 317.652C215.392 316.956 215.457 316.34 215.588 315.802C215.718 315.262 215.907 314.808 216.156 314.44C216.404 314.069 216.703 313.788 217.054 313.596C217.407 313.404 217.805 313.308 218.247 313.308C218.687 313.308 219.079 313.396 219.421 313.573C219.767 313.747 220.048 313.99 220.266 314.302C220.483 314.614 220.624 314.973 220.688 315.38H219.752C219.665 315.027 219.496 314.734 219.245 314.501C218.994 314.269 218.662 314.152 218.247 314.152C217.638 314.152 217.159 314.417 216.808 314.947C216.46 315.476 216.285 316.219 216.282 317.176H216.344C216.487 316.959 216.657 316.773 216.854 316.62C217.054 316.464 217.274 316.343 217.514 316.259C217.755 316.175 218.009 316.132 218.278 316.132C218.728 316.132 219.14 316.245 219.514 316.47C219.887 316.693 220.186 317.001 220.412 317.395C220.637 317.786 220.749 318.235 220.749 318.742C220.749 319.228 220.641 319.673 220.423 320.078C220.206 320.479 219.9 320.799 219.506 321.037C219.114 321.272 218.654 321.387 218.124 321.382ZM218.124 320.538C218.447 320.538 218.736 320.457 218.992 320.296C219.25 320.135 219.453 319.919 219.602 319.648C219.753 319.376 219.828 319.075 219.828 318.742C219.828 318.417 219.755 318.122 219.61 317.855C219.466 317.587 219.268 317.373 219.015 317.215C218.764 317.056 218.477 316.977 218.155 316.977C217.912 316.977 217.686 317.025 217.476 317.122C217.266 317.217 217.082 317.348 216.923 317.514C216.767 317.68 216.644 317.871 216.555 318.086C216.465 318.298 216.42 318.522 216.42 318.757C216.42 319.069 216.493 319.361 216.639 319.632C216.788 319.904 216.99 320.122 217.246 320.289C217.504 320.455 217.797 320.538 218.124 320.538Z" fill="black"/>
<path d="M232.285 295.045C230.648 297.718 228.18 299.004 225.149 299.472C223.262 299.764 221.409 299.612 219.535 299.451C215.916 299.14 212.573 298.096 209.639 295.901C205.97 293.155 203.082 289.65 200.264 286.096C198.803 284.254 198.173 282.06 198.729 279.749C199.691 275.749 201.47 272.139 204.472 269.238C207.972 265.857 212.169 264.571 216.878 265.727C221.706 266.912 226.209 268.97 230.336 271.776C233.276 273.775 234.583 276.604 234.581 280.14C234.58 283.087 234.041 285.988 233.993 288.934C233.96 291.009 233.565 293.082 232.285 295.045Z" fill="#F0F2F5"/>
<path d="M214.532 285.719C214.025 285.719 213.574 285.632 213.177 285.458C212.783 285.284 212.47 285.043 212.237 284.733C212.007 284.421 211.881 284.059 211.861 283.647H212.828C212.848 283.9 212.935 284.119 213.089 284.303C213.242 284.485 213.443 284.625 213.691 284.725C213.94 284.825 214.215 284.875 214.516 284.875C214.854 284.875 215.154 284.816 215.415 284.698C215.675 284.581 215.88 284.417 216.029 284.207C216.177 283.997 216.251 283.754 216.251 283.478C216.251 283.189 216.179 282.934 216.036 282.714C215.893 282.492 215.683 282.318 215.407 282.192C215.131 282.067 214.793 282.004 214.394 282.004H213.764V281.16H214.394C214.706 281.16 214.98 281.104 215.215 280.991C215.453 280.879 215.638 280.72 215.771 280.515C215.907 280.311 215.975 280.07 215.975 279.794C215.975 279.528 215.916 279.296 215.798 279.099C215.681 278.902 215.514 278.749 215.299 278.639C215.087 278.529 214.836 278.474 214.547 278.474C214.276 278.474 214.02 278.524 213.78 278.623C213.542 278.721 213.347 278.863 213.196 279.049C213.045 279.234 212.963 279.456 212.951 279.717H212.03C212.045 279.305 212.169 278.944 212.402 278.635C212.635 278.323 212.939 278.08 213.315 277.906C213.694 277.732 214.11 277.645 214.563 277.645C215.049 277.645 215.466 277.743 215.814 277.94C216.162 278.135 216.429 278.392 216.616 278.712C216.802 279.031 216.896 279.377 216.896 279.748C216.896 280.19 216.779 280.568 216.547 280.88C216.316 281.192 216.003 281.408 215.606 281.528V281.59C216.103 281.672 216.49 281.883 216.769 282.223C217.048 282.561 217.188 282.979 217.188 283.478C217.188 283.905 217.071 284.289 216.838 284.629C216.608 284.967 216.293 285.233 215.894 285.428C215.495 285.622 215.041 285.719 214.532 285.719ZM219.003 285.612L222.518 278.658V278.596H218.465V277.752H223.501V278.643L220.001 285.612H219.003Z" fill="black"/>
<path d="M28.2717 334.352C32.2436 332.912 35.6698 330.576 38.9302 327.943C43.0881 324.584 44.2685 320.988 42.6683 315.907C41.7 312.832 40.5243 309.826 39.4798 306.775C37.6793 301.516 34.4691 299.751 29.0033 300.52C21.508 301.574 14.8314 304.89 8.91399 309.58C5.99101 311.897 5.15935 315.17 5.53939 318.826C5.95023 322.778 6.91882 326.505 9.1198 329.893C12.1608 334.574 16.6175 335.89 21.8436 335.514C23.9652 335.362 26.0493 334.958 28.1895 334.362C28.2816 334.345 28.2717 334.352 28.2717 334.352Z" fill="#F0F2F5"/>
<path d="M19.3283 319.663V318.88L22.7822 313.416H23.3502V314.628H22.9664L20.3568 318.758V318.819H25.0081V319.663H19.3283ZM23.0278 321.275V319.425V319.061V313.416H23.9335V321.275H23.0278ZM29.0559 321.383C28.7335 321.378 28.4112 321.316 28.0888 321.198C27.7664 321.081 27.4722 320.882 27.2061 320.604C26.94 320.322 26.7264 319.942 26.5652 319.464C26.404 318.983 26.3235 318.379 26.3235 317.652C26.3235 316.956 26.3887 316.34 26.5192 315.803C26.6497 315.263 26.839 314.809 27.0872 314.44C27.3353 314.069 27.6347 313.788 27.9852 313.596C28.3382 313.404 28.7361 313.308 29.1787 313.308C29.6188 313.308 30.0102 313.396 30.353 313.573C30.6984 313.747 30.9799 313.99 31.1973 314.302C31.4148 314.614 31.5555 314.974 31.6195 315.38H30.6831C30.5961 315.027 30.4272 314.734 30.1765 314.502C29.9258 314.269 29.5932 314.152 29.1787 314.152C28.5698 314.152 28.0901 314.417 27.7396 314.947C27.3916 315.476 27.2164 316.22 27.2138 317.177H27.2752C27.4185 316.959 27.5886 316.774 27.7856 316.62C27.9852 316.464 28.2052 316.344 28.4457 316.259C28.6862 316.175 28.9408 316.133 29.2094 316.133C29.6597 316.133 30.0716 316.245 30.4451 316.47C30.8187 316.693 31.118 317.001 31.3432 317.395C31.5683 317.787 31.6809 318.236 31.6809 318.742C31.6809 319.228 31.5721 319.674 31.3547 320.078C31.1372 320.479 30.8315 320.799 30.4375 321.037C30.046 321.273 29.5855 321.388 29.0559 321.383ZM29.0559 320.538C29.3783 320.538 29.6674 320.458 29.9232 320.297C30.1816 320.135 30.385 319.919 30.5334 319.648C30.6844 319.377 30.7598 319.075 30.7598 318.742C30.7598 318.417 30.6869 318.122 30.5411 317.856C30.3978 317.587 30.1995 317.374 29.9462 317.215C29.6955 317.056 29.409 316.977 29.0866 316.977C28.8435 316.977 28.6171 317.026 28.4073 317.123C28.1975 317.217 28.0133 317.348 27.8547 317.514C27.6986 317.681 27.5758 317.871 27.4863 318.086C27.3967 318.298 27.352 318.522 27.352 318.758C27.352 319.07 27.4249 319.361 27.5707 319.633C27.7191 319.904 27.9212 320.123 28.1771 320.289C28.4355 320.455 28.7284 320.538 29.0559 320.538Z" fill="black"/>
<path d="M30.094 235.106C28.0239 233.089 25.7571 231.658 22.8888 231.323C21.6809 231.182 20.511 231.325 19.368 231.607C16.4304 232.331 13.5668 233.286 10.8041 234.539C7.84908 235.879 5.60263 238.037 3.69571 240.593C1.48775 243.552 0.961606 246.794 2.05558 250.328C3.03276 253.486 4.28556 256.497 6.6966 258.846C10.0745 262.138 14.1815 263.125 18.6974 262.126C25.2117 260.684 30.4131 257.205 33.9574 251.49C36.0571 248.105 36.385 244.538 34.517 240.886C33.4054 238.713 31.9546 236.811 30.094 235.106Z" fill="#F0F2F5"/>
<path d="M11.7635 248.336V247.553L15.2174 242.088H15.7854V243.301H15.4016L12.792 247.43V247.492H17.4433V248.336H11.7635ZM15.463 249.948V248.098V247.734V242.088H16.3687V249.948H15.463ZM21.399 250.055C20.8719 250.055 20.4063 249.962 20.002 249.775C19.6004 249.586 19.287 249.326 19.0618 248.996C18.8367 248.664 18.7254 248.285 18.7279 247.86C18.7254 247.528 18.7906 247.221 18.9237 246.939C19.0567 246.655 19.2383 246.419 19.4686 246.229C19.7014 246.037 19.9611 245.916 20.2477 245.865V245.819C19.8716 245.721 19.5722 245.51 19.3496 245.185C19.1271 244.858 19.017 244.486 19.0196 244.069C19.017 243.67 19.1181 243.313 19.3228 242.998C19.5275 242.683 19.8089 242.435 20.1671 242.253C20.5278 242.072 20.9384 241.981 21.399 241.981C21.8544 241.981 22.2612 242.072 22.6194 242.253C22.9775 242.435 23.259 242.683 23.4636 242.998C23.6709 243.313 23.7758 243.67 23.7783 244.069C23.7758 244.486 23.6619 244.858 23.4368 245.185C23.2142 245.51 22.9187 245.721 22.5503 245.819V245.865C22.8343 245.916 23.0901 246.037 23.3178 246.229C23.5455 246.419 23.7272 246.655 23.8628 246.939C23.9984 247.221 24.0674 247.528 24.07 247.86C24.0674 248.285 23.9523 248.664 23.7246 248.996C23.4995 249.326 23.1861 249.586 22.7844 249.775C22.3853 249.962 21.9235 250.055 21.399 250.055ZM21.399 249.211C21.7546 249.211 22.0616 249.154 22.32 249.038C22.5784 248.923 22.778 248.761 22.9187 248.551C23.0594 248.341 23.131 248.096 23.1336 247.814C23.131 247.517 23.0543 247.255 22.9033 247.027C22.7524 246.8 22.5464 246.621 22.2855 246.49C22.0271 246.36 21.7316 246.294 21.399 246.294C21.0638 246.294 20.7645 246.36 20.5009 246.49C20.24 246.621 20.034 246.8 19.8831 247.027C19.7347 247.255 19.6618 247.517 19.6643 247.814C19.6618 248.096 19.7296 248.341 19.8677 248.551C20.0084 248.761 20.2093 248.923 20.4702 249.038C20.7312 249.154 21.0408 249.211 21.399 249.211ZM21.399 245.481C21.6804 245.481 21.9298 245.425 22.1473 245.312C22.3673 245.199 22.54 245.042 22.6654 244.84C22.7908 244.638 22.8547 244.401 22.8573 244.13C22.8547 243.864 22.792 243.632 22.6692 243.435C22.5464 243.236 22.3763 243.082 22.1588 242.975C21.9414 242.865 21.6881 242.81 21.399 242.81C21.1047 242.81 20.8476 242.865 20.6276 242.975C20.4076 243.082 20.2374 243.236 20.1172 243.435C19.9969 243.632 19.9381 243.864 19.9406 244.13C19.9381 244.401 19.9982 244.638 20.121 244.84C20.2464 245.042 20.4191 245.199 20.6391 245.312C20.8591 245.425 21.1124 245.481 21.399 245.481Z" fill="black"/>
<path d="M33.5071 358.446C30.7031 359.615 27.9755 360.711 25.6129 362.542C20.7503 366.311 19.2723 373.779 22.3499 379.133C23.7184 381.514 25.813 382.944 28.4013 383.592C34.219 385.049 39.9352 385.484 44.7951 380.981C47.0177 378.922 48.9834 376.62 50.6126 374.045C51.6335 372.432 52.3884 370.717 52.5338 368.802C52.9309 363.57 50.0281 357.613 44.2847 356.491C41.4965 355.946 38.75 356.422 36.0991 357.411C35.2568 357.725 34.4271 358.072 33.5071 358.446Z" fill="#F0F2F5"/>
<path d="M31.216 372.616V371.833L34.6699 366.368H35.2379V367.581H34.8541L32.2445 371.71V371.772H36.8958V372.616H31.216ZM34.9155 374.228V372.378V372.013V366.368H35.8212V374.228H34.9155ZM38.1497 372.616V371.833L41.6037 366.368H42.1716V367.581H41.7879L39.1782 371.71V371.772H43.8295V372.616H38.1497ZM41.8493 374.228V372.378V372.013V366.368H42.755V374.228H41.8493Z" fill="black"/>
<path d="M128.895 426.256C130.013 424.702 131.453 423.52 133.101 422.563C135.444 421.202 137.747 421.194 140.234 422.314C145.193 424.547 148.942 428.009 151.588 432.738C152.967 435.203 152.714 436.388 150.294 437.902C149.948 438.119 149.586 438.312 149.228 438.508C146.148 440.197 142.776 440.744 139.338 441.057C135.273 441.427 131.239 442.202 127.131 442.029C124.547 441.92 123.571 440.815 124.132 438.316C125.076 434.116 126.39 430.038 128.895 426.256Z" fill="#F0F2F5"/>
<path d="M135.641 435.936C135.135 435.936 134.683 435.849 134.287 435.675C133.893 435.501 133.579 435.259 133.346 434.95C133.116 434.637 132.991 434.275 132.97 433.864H133.937C133.958 434.117 134.045 434.336 134.198 434.52C134.352 434.701 134.553 434.842 134.801 434.942C135.049 435.042 135.324 435.092 135.626 435.092C135.964 435.092 136.263 435.033 136.524 434.915C136.785 434.797 136.99 434.634 137.138 434.424C137.286 434.214 137.361 433.971 137.361 433.695C137.361 433.406 137.289 433.151 137.146 432.931C137.002 432.708 136.793 432.534 136.516 432.409C136.24 432.284 135.902 432.221 135.503 432.221H134.874V431.377H135.503C135.815 431.377 136.089 431.32 136.324 431.208C136.562 431.095 136.748 430.937 136.881 430.732C137.016 430.527 137.084 430.287 137.084 430.01C137.084 429.744 137.025 429.513 136.908 429.316C136.79 429.119 136.624 428.965 136.409 428.855C136.196 428.745 135.946 428.69 135.657 428.69C135.385 428.69 135.13 428.74 134.889 428.84C134.651 428.937 134.457 429.079 134.306 429.266C134.155 429.45 134.073 429.673 134.06 429.934H133.139C133.154 429.522 133.279 429.161 133.511 428.851C133.744 428.539 134.049 428.296 134.425 428.122C134.803 427.948 135.219 427.861 135.672 427.861C136.158 427.861 136.575 427.96 136.923 428.157C137.271 428.351 137.538 428.608 137.725 428.928C137.912 429.248 138.005 429.593 138.005 429.964C138.005 430.407 137.889 430.784 137.656 431.097C137.426 431.409 137.112 431.625 136.716 431.745V431.806C137.212 431.888 137.6 432.099 137.879 432.44C138.158 432.777 138.297 433.196 138.297 433.695C138.297 434.122 138.181 434.506 137.948 434.846C137.717 435.184 137.403 435.45 137.004 435.644C136.605 435.839 136.15 435.936 135.641 435.936ZM142.63 427.969V435.828H141.678V428.967H141.632L139.713 430.241V429.274L141.678 427.969H142.63Z" fill="black"/>
<path d="M114.495 440.24C114.142 441.453 113.176 441.849 112.071 441.972C111.262 442.062 110.439 442.07 109.624 442.042C105.459 441.899 101.341 441.268 97.2047 440.828C94.0371 440.491 91.0541 439.605 88.3153 437.949C85.8342 436.448 85.5604 435.261 86.9854 432.718C89.6081 428.038 93.3156 424.595 98.2164 422.356C100.918 421.122 103.385 421.198 105.872 422.807C107.904 424.121 109.586 425.727 110.695 427.904C112.649 431.741 114.292 435.673 114.495 440.24Z" fill="#F0F2F5"/>
<path d="M97.1387 435.297V434.514L100.593 429.049H101.161V430.262H100.777L98.1672 434.391V434.453H102.818V435.297H97.1387ZM100.838 436.909V435.059V434.694V429.049H101.744V436.909H100.838ZM106.914 429.049V436.909H105.962V430.047H105.916L103.998 431.321V430.354L105.962 429.049H106.914Z" fill="black"/>
<path d="M38.3722 401.517C40.3583 405.976 43.5124 408.979 48.2744 409.999C53.9202 411.207 60.5011 408.363 63.7937 403.273C66.3078 399.386 67.2763 395.105 66.4231 390.511C65.4367 385.2 62.4653 382.382 57.0407 381.948C52.2972 381.568 47.6529 382.233 43.3328 384.402C37.9621 387.098 35.5082 392.933 37.308 398.679C37.6003 399.612 37.9879 400.516 38.3722 401.517Z" fill="#155DFC"/>
<path d="M47.4264 397.473V396.69L50.8803 391.225H51.4483V392.438H51.0645L48.4549 396.567V396.629H53.1062V397.473H47.4264ZM51.1259 399.085V397.235V396.871V391.225H52.0316V399.085H51.1259ZM57.2 399.192C56.6935 399.192 56.2419 399.105 55.8453 398.931C55.4513 398.757 55.1379 398.516 54.9051 398.206C54.6748 397.894 54.5495 397.532 54.529 397.12H55.4961C55.5166 397.373 55.6035 397.592 55.7571 397.776C55.9106 397.958 56.1114 398.099 56.3596 398.198C56.6077 398.298 56.8828 398.348 57.1847 398.348C57.5224 398.348 57.8217 398.289 58.0827 398.171C58.3437 398.054 58.5483 397.89 58.6967 397.68C58.8451 397.47 58.9193 397.227 58.9193 396.951C58.9193 396.662 58.8477 396.407 58.7044 396.187C58.5611 395.965 58.3513 395.791 58.075 395.665C57.7987 395.54 57.461 395.477 57.0619 395.477H56.4325V394.633H57.0619C57.374 394.633 57.6478 394.577 57.8831 394.464C58.1211 394.352 58.3066 394.193 58.4396 393.988C58.5752 393.784 58.643 393.543 58.643 393.267C58.643 393.001 58.5842 392.769 58.4665 392.572C58.3488 392.375 58.1825 392.222 57.9676 392.112C57.7552 392.002 57.5045 391.947 57.2154 391.947C56.9442 391.947 56.6883 391.997 56.4478 392.096C56.2099 392.194 56.0155 392.336 55.8645 392.522C55.7136 392.707 55.6317 392.929 55.6189 393.19H54.6978C54.7132 392.778 54.8373 392.418 55.0701 392.108C55.3029 391.796 55.6074 391.553 55.9835 391.379C56.3621 391.205 56.7779 391.118 57.2307 391.118C57.7168 391.118 58.1339 391.216 58.4818 391.413C58.8298 391.608 59.0971 391.865 59.2839 392.185C59.4707 392.505 59.564 392.85 59.564 393.221C59.564 393.663 59.4476 394.041 59.2148 394.353C58.9846 394.665 58.6711 394.881 58.2746 395.002V395.063C58.7709 395.145 59.1585 395.356 59.4374 395.696C59.7163 396.034 59.8557 396.452 59.8557 396.951C59.8557 397.378 59.7393 397.762 59.5065 398.102C59.2762 398.44 58.9615 398.706 58.5624 398.901C58.1633 399.095 57.7092 399.192 57.2 399.192Z" fill="white"/>
<path d="M164.127 427.376C163.814 427.569 163.508 427.775 163.188 427.955C160.619 429.401 159.155 429.014 157.775 426.422C156.048 423.181 155.345 419.755 155.594 416.04C156.02 409.687 165.376 404.297 170.721 407.755C173.337 409.448 176.041 410.961 177.945 413.519C179.678 415.847 179.445 417.745 177.196 419.595C176.37 420.274 175.46 420.838 174.487 421.258C170.828 422.836 167.445 424.874 164.127 427.376Z" fill="#155DFC"/>
<path d="M163.739 419.725C163.232 419.725 162.781 419.638 162.384 419.464C161.99 419.29 161.677 419.048 161.444 418.739C161.214 418.427 161.088 418.065 161.068 417.653H162.035C162.055 417.906 162.142 418.125 162.296 418.309C162.449 418.491 162.65 418.631 162.898 418.731C163.147 418.831 163.422 418.881 163.724 418.881C164.061 418.881 164.361 418.822 164.622 418.704C164.883 418.587 165.087 418.423 165.236 418.213C165.384 418.003 165.458 417.76 165.458 417.484C165.458 417.195 165.387 416.94 165.243 416.72C165.1 416.498 164.89 416.324 164.614 416.198C164.338 416.073 164 416.01 163.601 416.01H162.971V415.166H163.601C163.913 415.166 164.187 415.11 164.422 414.997C164.66 414.885 164.845 414.726 164.979 414.521C165.114 414.317 165.182 414.076 165.182 413.8C165.182 413.534 165.123 413.302 165.005 413.105C164.888 412.908 164.721 412.755 164.506 412.645C164.294 412.535 164.043 412.48 163.754 412.48C163.483 412.48 163.227 412.529 162.987 412.629C162.749 412.726 162.554 412.868 162.403 413.055C162.252 413.239 162.171 413.462 162.158 413.723H161.237C161.252 413.311 161.376 412.95 161.609 412.641C161.842 412.329 162.146 412.086 162.522 411.912C162.901 411.738 163.317 411.651 163.77 411.651C164.256 411.651 164.673 411.749 165.021 411.946C165.369 412.141 165.636 412.398 165.823 412.718C166.01 413.037 166.103 413.383 166.103 413.754C166.103 414.196 165.987 414.574 165.754 414.886C165.523 415.198 165.21 415.414 164.813 415.534V415.596C165.31 415.678 165.697 415.889 165.976 416.229C166.255 416.567 166.395 416.985 166.395 417.484C166.395 417.911 166.278 418.295 166.045 418.635C165.815 418.973 165.5 419.239 165.101 419.433C164.702 419.628 164.248 419.725 163.739 419.725ZM167.964 419.618V418.927L170.559 416.087C170.863 415.754 171.114 415.465 171.311 415.22C171.508 414.972 171.654 414.739 171.748 414.521C171.845 414.301 171.894 414.071 171.894 413.83C171.894 413.554 171.828 413.315 171.694 413.113C171.564 412.911 171.385 412.755 171.157 412.645C170.929 412.535 170.674 412.48 170.39 412.48C170.088 412.48 169.824 412.542 169.599 412.668C169.377 412.79 169.204 412.963 169.081 413.186C168.961 413.408 168.901 413.669 168.901 413.969H167.995C167.995 413.508 168.101 413.104 168.313 412.756C168.526 412.408 168.815 412.137 169.181 411.942C169.549 411.748 169.962 411.651 170.42 411.651C170.881 411.651 171.289 411.748 171.645 411.942C172 412.137 172.279 412.399 172.481 412.729C172.683 413.059 172.784 413.426 172.784 413.83C172.784 414.12 172.732 414.402 172.627 414.679C172.525 414.952 172.346 415.258 172.09 415.596C171.836 415.931 171.485 416.34 171.034 416.824L169.269 418.712V418.773H172.923V419.618H167.964Z" fill="white"/>
<path d="M173.873 383.319C171.996 384.228 170.816 385.732 170.201 387.691C168.286 393.789 170.878 402.825 179.508 405.502C184.137 406.938 188.083 405.683 191.218 402.094C193.134 399.902 194.166 397.218 194.552 394.325C195.065 390.475 193.773 387.253 190.431 385.331C185.326 382.396 179.815 381.505 173.873 383.319Z" fill="#155DFC"/>
<path d="M178.869 397.031C178.363 397.031 177.911 396.944 177.515 396.77C177.121 396.596 176.807 396.354 176.574 396.045C176.344 395.733 176.219 395.371 176.198 394.959H177.165C177.186 395.212 177.273 395.431 177.426 395.615C177.58 395.797 177.781 395.937 178.029 396.037C178.277 396.137 178.552 396.187 178.854 396.187C179.192 396.187 179.491 396.128 179.752 396.01C180.013 395.893 180.218 395.729 180.366 395.519C180.514 395.309 180.589 395.066 180.589 394.79C180.589 394.501 180.517 394.246 180.374 394.026C180.23 393.804 180.021 393.63 179.744 393.504C179.468 393.379 179.13 393.316 178.731 393.316H178.102V392.472H178.731C179.043 392.472 179.317 392.416 179.552 392.303C179.79 392.191 179.976 392.032 180.109 391.827C180.245 391.623 180.312 391.382 180.312 391.106C180.312 390.84 180.253 390.608 180.136 390.411C180.018 390.214 179.852 390.061 179.637 389.951C179.425 389.841 179.174 389.786 178.885 389.786C178.614 389.786 178.358 389.836 178.117 389.935C177.879 390.033 177.685 390.175 177.534 390.361C177.383 390.545 177.301 390.768 177.288 391.029H176.367C176.383 390.617 176.507 390.256 176.739 389.947C176.972 389.635 177.277 389.392 177.653 389.218C178.031 389.044 178.447 388.957 178.9 388.957C179.386 388.957 179.803 389.055 180.151 389.252C180.499 389.447 180.766 389.704 180.953 390.024C181.14 390.343 181.233 390.689 181.233 391.06C181.233 391.502 181.117 391.88 180.884 392.192C180.654 392.504 180.34 392.72 179.944 392.84V392.902C180.44 392.984 180.828 393.195 181.107 393.535C181.386 393.873 181.525 394.291 181.525 394.79C181.525 395.217 181.409 395.601 181.176 395.941C180.946 396.279 180.631 396.545 180.232 396.74C179.833 396.934 179.378 397.031 178.869 397.031ZM185.75 397.031C185.244 397.031 184.792 396.944 184.396 396.77C184.002 396.596 183.688 396.354 183.455 396.045C183.225 395.733 183.1 395.371 183.079 394.959H184.046C184.067 395.212 184.154 395.431 184.307 395.615C184.461 395.797 184.662 395.937 184.91 396.037C185.158 396.137 185.433 396.187 185.735 396.187C186.073 396.187 186.372 396.128 186.633 396.01C186.894 395.893 187.099 395.729 187.247 395.519C187.395 395.309 187.47 395.066 187.47 394.79C187.47 394.501 187.398 394.246 187.255 394.026C187.111 393.804 186.902 393.63 186.625 393.504C186.349 393.379 186.011 393.316 185.612 393.316H184.983V392.472H185.612C185.924 392.472 186.198 392.416 186.433 392.303C186.671 392.191 186.857 392.032 186.99 391.827C187.126 391.623 187.193 391.382 187.193 391.106C187.193 390.84 187.134 390.608 187.017 390.411C186.899 390.214 186.733 390.061 186.518 389.951C186.306 389.841 186.055 389.786 185.766 389.786C185.494 389.786 185.239 389.836 184.998 389.935C184.76 390.033 184.566 390.175 184.415 390.361C184.264 390.545 184.182 390.768 184.169 391.029H183.248C183.264 390.617 183.388 390.256 183.62 389.947C183.853 389.635 184.158 389.392 184.534 389.218C184.912 389.044 185.328 388.957 185.781 388.957C186.267 388.957 186.684 389.055 187.032 389.252C187.38 389.447 187.647 389.704 187.834 390.024C188.021 390.343 188.114 390.689 188.114 391.06C188.114 391.502 187.998 391.88 187.765 392.192C187.535 392.504 187.221 392.72 186.825 392.84V392.902C187.321 392.984 187.709 393.195 187.988 393.535C188.267 393.873 188.406 394.291 188.406 394.79C188.406 395.217 188.29 395.601 188.057 395.941C187.827 396.279 187.512 396.545 187.113 396.74C186.714 396.934 186.259 397.031 185.75 397.031Z" fill="white"/>
<path d="M190.685 377.263C192.447 378.963 194.525 380.05 196.975 380.247C199.301 380.433 201.635 380.366 203.903 379.74C205.894 379.19 207.808 378.428 209.023 376.621C211.507 372.931 211.558 365.898 206.656 362.589C202.715 359.929 198.391 358.123 193.81 357.019C191.321 356.42 188.851 356.82 186.825 358.688C183.397 361.85 182.764 367.1 185.364 370.969C186.873 373.215 188.598 375.278 190.685 377.263Z" fill="#155DFC"/>
<path d="M192.919 372.175C192.412 372.175 191.961 372.088 191.564 371.914C191.17 371.74 190.857 371.498 190.624 371.189C190.394 370.877 190.268 370.515 190.248 370.103H191.215C191.235 370.356 191.322 370.575 191.476 370.759C191.629 370.941 191.83 371.081 192.078 371.181C192.327 371.281 192.602 371.331 192.904 371.331C193.241 371.331 193.541 371.272 193.802 371.154C194.063 371.037 194.267 370.873 194.416 370.663C194.564 370.453 194.638 370.21 194.638 369.934C194.638 369.645 194.567 369.39 194.423 369.17C194.28 368.948 194.07 368.774 193.794 368.648C193.518 368.523 193.18 368.46 192.781 368.46H192.151V367.616H192.781C193.093 367.616 193.367 367.56 193.602 367.447C193.84 367.334 194.025 367.176 194.158 366.971C194.294 366.766 194.362 366.526 194.362 366.25C194.362 365.984 194.303 365.752 194.185 365.555C194.068 365.358 193.901 365.205 193.686 365.095C193.474 364.984 193.223 364.929 192.934 364.929C192.663 364.929 192.407 364.979 192.167 365.079C191.929 365.176 191.734 365.318 191.583 365.505C191.432 365.689 191.351 365.912 191.338 366.173H190.417C190.432 365.761 190.556 365.4 190.789 365.091C191.022 364.779 191.326 364.535 191.702 364.362C192.081 364.188 192.497 364.101 192.95 364.101C193.436 364.101 193.853 364.199 194.201 364.396C194.549 364.59 194.816 364.848 195.003 365.167C195.19 365.487 195.283 365.833 195.283 366.204C195.283 366.646 195.167 367.024 194.934 367.336C194.703 367.648 194.39 367.864 193.993 367.984V368.046C194.49 368.128 194.877 368.339 195.156 368.679C195.435 369.017 195.575 369.435 195.575 369.934C195.575 370.361 195.458 370.745 195.225 371.085C194.995 371.423 194.68 371.689 194.281 371.883C193.882 372.078 193.428 372.175 192.919 372.175ZM196.96 370.456V369.673L200.414 364.208H200.982V365.421H200.598L197.989 369.55V369.611H202.64V370.456H196.96ZM200.66 372.068V370.218V369.853V364.208H201.565V372.068H200.66Z" fill="white"/>
<path d="M200.409 336.766C201.297 336.651 202.195 336.386 203.072 336.444C208.449 336.799 213.001 339.026 216.668 342.916C218.839 345.219 219.517 348.081 217.52 351.323C215.32 354.895 212.253 356.265 208.09 355.645C202 354.739 197.465 351.692 194.566 346.28C193.688 344.641 193.65 342.871 194.703 341.261C196.052 339.2 197.805 337.588 200.409 336.766Z" fill="#F0F2F5"/>
<path d="M202.645 350.561C202.138 350.561 201.686 350.474 201.29 350.3C200.896 350.126 200.583 349.884 200.35 349.575C200.119 349.262 199.994 348.9 199.974 348.488H200.941C200.961 348.742 201.048 348.96 201.202 349.145C201.355 349.326 201.556 349.467 201.804 349.567C202.052 349.667 202.327 349.717 202.629 349.717C202.967 349.717 203.266 349.658 203.527 349.54C203.788 349.422 203.993 349.259 204.141 349.049C204.29 348.839 204.364 348.596 204.364 348.32C204.364 348.03 204.292 347.776 204.149 347.556C204.006 347.333 203.796 347.159 203.52 347.034C203.243 346.909 202.906 346.846 202.506 346.846H201.877V346.002H202.506C202.819 346.002 203.092 345.945 203.328 345.833C203.566 345.72 203.751 345.562 203.884 345.357C204.02 345.152 204.088 344.912 204.088 344.635C204.088 344.369 204.029 344.138 203.911 343.941C203.793 343.744 203.627 343.59 203.412 343.48C203.2 343.37 202.949 343.315 202.66 343.315C202.389 343.315 202.133 343.365 201.892 343.465C201.655 343.562 201.46 343.704 201.309 343.891C201.158 344.075 201.076 344.298 201.063 344.559H200.142C200.158 344.147 200.282 343.786 200.515 343.476C200.748 343.164 201.052 342.921 201.428 342.747C201.807 342.573 202.222 342.486 202.675 342.486C203.161 342.486 203.578 342.585 203.926 342.782C204.274 342.976 204.542 343.233 204.728 343.553C204.915 343.873 205.009 344.218 205.009 344.589C205.009 345.032 204.892 345.409 204.659 345.721C204.429 346.034 204.116 346.25 203.719 346.37V346.431C204.216 346.513 204.603 346.724 204.882 347.065C205.161 347.402 205.3 347.821 205.3 348.32C205.3 348.747 205.184 349.131 204.951 349.471C204.721 349.809 204.406 350.075 204.007 350.269C203.608 350.464 203.154 350.561 202.645 350.561ZM209.326 350.561C208.876 350.561 208.47 350.471 208.11 350.292C207.749 350.113 207.46 349.867 207.242 349.555C207.025 349.243 206.906 348.888 206.885 348.488H207.806C207.842 348.844 208.003 349.138 208.29 349.371C208.579 349.601 208.924 349.717 209.326 349.717C209.648 349.717 209.935 349.641 210.186 349.49C210.439 349.339 210.637 349.132 210.781 348.868C210.926 348.602 210.999 348.302 210.999 347.967C210.999 347.624 210.924 347.318 210.773 347.049C210.624 346.778 210.42 346.564 210.159 346.408C209.898 346.252 209.6 346.173 209.265 346.17C209.024 346.168 208.777 346.205 208.524 346.282C208.271 346.356 208.062 346.452 207.898 346.57L207.008 346.462L207.484 342.594H211.567V343.438H208.282L208.006 345.756H208.052C208.213 345.628 208.415 345.522 208.658 345.437C208.901 345.353 209.155 345.311 209.418 345.311C209.899 345.311 210.328 345.426 210.704 345.656C211.082 345.884 211.379 346.196 211.594 346.593C211.812 346.989 211.92 347.442 211.92 347.951C211.92 348.453 211.808 348.9 211.583 349.294C211.36 349.686 211.053 349.995 210.662 350.223C210.27 350.448 209.825 350.561 209.326 350.561Z" fill="black"/>
<path d="M57.6484 418.748C58.7854 421.232 60.8799 422.52 63.1435 423.511C66.571 425.011 69.7371 426.917 72.7136 429.165C73.5613 429.806 74.4686 430.359 75.4611 430.76C78.1268 431.837 80.3728 431.316 82.0539 428.958C84.266 425.856 85.2356 422.288 85.5026 418.516C86.1377 409.547 78.7268 404.915 72.532 404.233C71.5068 404.121 70.4696 404.21 69.5019 404.537C64.936 406.083 61.0934 408.68 58.2679 412.627C56.9474 414.471 56.6655 416.523 57.6484 418.748Z" fill="#155DFC"/>
<path d="M66.8789 419.086V418.303L70.3328 412.838H70.9008V414.051H70.517L67.9074 418.181V418.242H72.5587V419.086H66.8789ZM70.5784 420.698V418.848V418.484V412.838H71.4841V420.698H70.5784ZM73.9969 420.698V420.007L76.5911 417.167C76.8956 416.835 77.1463 416.546 77.3433 416.3C77.5403 416.052 77.6862 415.819 77.7808 415.602C77.878 415.382 77.9267 415.151 77.9267 414.911C77.9267 414.635 77.8601 414.395 77.7271 414.193C77.5966 413.991 77.4175 413.835 77.1898 413.725C76.9621 413.615 76.7063 413.56 76.4223 413.56C76.1204 413.56 75.8569 413.623 75.6317 413.748C75.4091 413.871 75.2364 414.044 75.1136 414.266C74.9934 414.489 74.9333 414.75 74.9333 415.049H74.0276C74.0276 414.588 74.1337 414.184 74.3461 413.836C74.5584 413.488 74.8475 413.217 75.2134 413.023C75.5818 412.828 75.995 412.731 76.453 412.731C76.9135 412.731 77.3216 412.828 77.6772 413.023C78.0328 413.217 78.3117 413.479 78.5138 413.809C78.7159 414.139 78.817 414.507 78.817 414.911C78.817 415.2 78.7646 415.483 78.6597 415.759C78.5573 416.033 78.3782 416.338 78.1224 416.676C77.8691 417.011 77.5173 417.421 77.067 417.904L75.3017 419.792V419.854H78.9552V420.698H73.9969Z" fill="white"/>
<path d="M14.9855 351.432C18.1058 357.129 21.2871 358.674 27.2413 358.133C33.1151 357.598 37.8721 354.876 41.4522 350.168C45.3303 345.068 44.6368 340.131 39.5743 336.204C36.5574 333.864 33.1423 333.658 29.5655 334.15C29.2017 334.2 28.8404 334.273 28.3741 334.342C28.2704 334.349 28.2808 334.342 28.2862 334.34C25.3495 335.355 22.4834 336.533 19.9825 338.441C17.4917 340.342 15.1454 342.344 14.3605 345.606C13.8706 347.642 13.9875 349.61 14.9855 351.432Z" fill="#F0F2F5"/>
<path d="M24.7314 347.76V346.977L28.1854 341.512H28.7533V342.725H28.3696L25.7599 346.854V346.916H30.4112V347.76H24.7314ZM28.431 349.372V347.522V347.158V341.512H29.3367V349.372H28.431ZM34.3055 349.479C33.8552 349.479 33.4497 349.39 33.089 349.211C32.7282 349.032 32.4391 348.786 32.2217 348.474C32.0042 348.162 31.8852 347.806 31.8647 347.407H32.7858C32.8216 347.763 32.9828 348.057 33.2693 348.29C33.5584 348.52 33.9038 348.635 34.3055 348.635C34.6279 348.635 34.9144 348.56 35.1652 348.409C35.4185 348.258 35.6167 348.05 35.76 347.787C35.9058 347.521 35.9788 347.22 35.9788 346.885C35.9788 346.542 35.9033 346.237 35.7523 345.968C35.6039 345.697 35.3993 345.483 35.1383 345.327C34.8773 345.171 34.5793 345.092 34.2441 345.089C34.0036 345.086 33.7567 345.124 33.5034 345.2C33.2502 345.275 33.0416 345.37 32.8779 345.488L31.9876 345.381L32.4634 341.512H36.5467V342.357H33.2617L32.9854 344.675H33.0314C33.1926 344.547 33.3947 344.44 33.6378 344.356C33.8808 344.272 34.1341 344.229 34.3976 344.229C34.8786 344.229 35.3072 344.345 35.6833 344.575C36.0619 344.803 36.3587 345.115 36.5736 345.511C36.7911 345.908 36.8998 346.361 36.8998 346.87C36.8998 347.371 36.7872 347.819 36.5621 348.213C36.3395 348.604 36.0325 348.914 35.641 349.142C35.2496 349.367 34.8044 349.479 34.3055 349.479Z" fill="black"/>
<path d="M210.703 256.073C208.308 254.474 206.505 252.326 205.059 249.875C203.541 247.303 203.321 244.664 204.775 241.954C206.354 239.009 208.532 236.627 211.327 234.811C213.154 233.625 215.159 233.461 217.216 233.981C219.631 234.592 221.965 235.461 224.291 236.352C226.844 237.33 228.88 239.001 230.579 241.089C232.267 243.163 233.598 245.404 232.998 248.25C232.514 250.54 231.704 252.734 230.489 254.73C228.377 258.202 225.295 260.057 221.151 259.965C217.282 259.88 213.969 258.289 210.703 256.073Z" fill="#F0F2F5"/>
<path d="M215.612 250.054C215.106 250.054 214.654 249.967 214.258 249.793C213.864 249.619 213.55 249.377 213.318 249.068C213.087 248.756 212.962 248.394 212.941 247.982H213.909C213.929 248.235 214.016 248.454 214.169 248.638C214.323 248.819 214.524 248.96 214.772 249.06C215.02 249.16 215.295 249.21 215.597 249.21C215.935 249.21 216.234 249.151 216.495 249.033C216.756 248.915 216.961 248.752 217.109 248.542C217.258 248.332 217.332 248.089 217.332 247.813C217.332 247.524 217.26 247.269 217.117 247.049C216.974 246.826 216.764 246.652 216.487 246.527C216.211 246.402 215.873 246.339 215.474 246.339H214.845V245.495H215.474C215.786 245.495 216.06 245.438 216.296 245.326C216.534 245.213 216.719 245.055 216.852 244.85C216.988 244.645 217.055 244.405 217.055 244.129C217.055 243.862 216.997 243.631 216.879 243.434C216.761 243.237 216.595 243.083 216.38 242.973C216.168 242.863 215.917 242.808 215.628 242.808C215.357 242.808 215.101 242.858 214.86 242.958C214.622 243.055 214.428 243.197 214.277 243.384C214.126 243.568 214.044 243.791 214.031 244.052H213.11C213.126 243.64 213.25 243.279 213.483 242.97C213.715 242.657 214.02 242.414 214.396 242.24C214.775 242.066 215.19 241.979 215.643 241.979C216.129 241.979 216.546 242.078 216.894 242.275C217.242 242.469 217.51 242.727 217.696 243.046C217.883 243.366 217.976 243.712 217.976 244.083C217.976 244.525 217.86 244.902 217.627 245.215C217.397 245.527 217.084 245.743 216.687 245.863V245.925C217.183 246.006 217.571 246.218 217.85 246.558C218.129 246.896 218.268 247.314 218.268 247.813C218.268 248.24 218.152 248.624 217.919 248.964C217.689 249.302 217.374 249.568 216.975 249.762C216.576 249.957 216.122 250.054 215.612 250.054ZM222.355 250.054C221.828 250.054 221.363 249.961 220.958 249.774C220.557 249.584 220.243 249.325 220.018 248.995C219.793 248.662 219.682 248.284 219.684 247.859C219.682 247.526 219.747 247.219 219.88 246.938C220.013 246.654 220.195 246.417 220.425 246.228C220.658 246.036 220.917 245.914 221.204 245.863V245.817C220.828 245.72 220.529 245.509 220.306 245.184C220.083 244.856 219.973 244.484 219.976 244.067C219.973 243.668 220.074 243.311 220.279 242.996C220.484 242.682 220.765 242.434 221.123 242.252C221.484 242.07 221.895 241.979 222.355 241.979C222.811 241.979 223.217 242.07 223.576 242.252C223.934 242.434 224.215 242.682 224.42 242.996C224.627 243.311 224.732 243.668 224.735 244.067C224.732 244.484 224.618 244.856 224.393 245.184C224.171 245.509 223.875 245.72 223.507 245.817V245.863C223.791 245.914 224.046 246.036 224.274 246.228C224.502 246.417 224.683 246.654 224.819 246.938C224.955 247.219 225.024 247.526 225.026 247.859C225.024 248.284 224.909 248.662 224.681 248.995C224.456 249.325 224.142 249.584 223.741 249.774C223.342 249.961 222.88 250.054 222.355 250.054ZM222.355 249.21C222.711 249.21 223.018 249.152 223.276 249.037C223.535 248.922 223.734 248.759 223.875 248.55C224.016 248.34 224.087 248.094 224.09 247.813C224.087 247.516 224.011 247.254 223.86 247.026C223.709 246.798 223.503 246.619 223.242 246.489C222.983 246.358 222.688 246.293 222.355 246.293C222.02 246.293 221.721 246.358 221.457 246.489C221.196 246.619 220.99 246.798 220.839 247.026C220.691 247.254 220.618 247.516 220.621 247.813C220.618 248.094 220.686 248.34 220.824 248.55C220.965 248.759 221.166 248.922 221.427 249.037C221.688 249.152 221.997 249.21 222.355 249.21ZM222.355 245.479C222.637 245.479 222.886 245.423 223.104 245.311C223.324 245.198 223.496 245.041 223.622 244.839C223.747 244.636 223.811 244.4 223.814 244.129C223.811 243.862 223.748 243.631 223.626 243.434C223.503 243.234 223.333 243.081 223.115 242.973C222.898 242.863 222.644 242.808 222.355 242.808C222.061 242.808 221.804 242.863 221.584 242.973C221.364 243.081 221.194 243.234 221.074 243.434C220.953 243.631 220.894 243.862 220.897 244.129C220.894 244.4 220.955 244.636 221.077 244.839C221.203 245.041 221.375 245.198 221.595 245.311C221.815 245.423 222.069 245.479 222.355 245.479Z" fill="black"/>
<path d="M30.094 209.506C28.0239 211.524 25.7571 212.955 22.8888 213.29C21.6809 213.431 20.511 213.288 19.368 213.006C16.4304 212.282 13.5668 211.327 10.8041 210.074C7.84908 208.734 5.60263 206.575 3.69571 204.02C1.48775 201.061 0.961605 197.819 2.05558 194.284C3.03276 191.127 4.28556 188.115 6.6966 185.766C10.0745 182.475 14.1815 181.487 18.6974 182.487C25.2117 183.928 30.4131 187.407 33.9574 193.122C36.0571 196.508 36.385 200.075 34.517 203.726C33.4054 205.9 31.9546 207.802 30.094 209.506Z" fill="#F0F2F5"/>
<path d="M15.4644 193.263V201.122H14.5126V194.26H14.4666L12.5477 195.535V194.568L14.5126 193.263H15.4644ZM20.2423 201.23C19.7153 201.23 19.2496 201.136 18.8454 200.95C18.4437 200.76 18.1303 200.501 17.9051 200.171C17.68 199.838 17.5687 199.459 17.5713 199.035C17.5687 198.702 17.6339 198.395 17.767 198.114C17.9 197.83 18.0817 197.593 18.3119 197.404C18.5448 197.212 18.8044 197.09 19.091 197.039V196.993C18.7149 196.896 18.4156 196.685 18.193 196.36C17.9704 196.032 17.8604 195.66 17.8629 195.243C17.8604 194.844 17.9614 194.487 18.1661 194.172C18.3708 193.858 18.6522 193.609 19.0104 193.428C19.3711 193.246 19.7818 193.155 20.2423 193.155C20.6977 193.155 21.1045 193.246 21.4627 193.428C21.8209 193.609 22.1023 193.858 22.307 194.172C22.5142 194.487 22.6191 194.844 22.6217 195.243C22.6191 195.66 22.5053 196.032 22.2801 196.36C22.0575 196.685 21.762 196.896 21.3936 196.993V197.039C21.6776 197.09 21.9334 197.212 22.1611 197.404C22.3888 197.593 22.5705 197.83 22.7061 198.114C22.8417 198.395 22.9108 198.702 22.9133 199.035C22.9108 199.459 22.7956 199.838 22.5679 200.171C22.3428 200.501 22.0294 200.76 21.6277 200.95C21.2286 201.136 20.7668 201.23 20.2423 201.23ZM20.2423 200.385C20.5979 200.385 20.9049 200.328 21.1633 200.213C21.4217 200.098 21.6213 199.935 21.762 199.725C21.9027 199.516 21.9744 199.27 21.9769 198.989C21.9744 198.692 21.8976 198.43 21.7467 198.202C21.5957 197.974 21.3898 197.795 21.1288 197.665C20.8704 197.534 20.5749 197.469 20.2423 197.469C19.9071 197.469 19.6078 197.534 19.3443 197.665C19.0833 197.795 18.8774 197.974 18.7264 198.202C18.578 198.43 18.5051 198.692 18.5077 198.989C18.5051 199.27 18.5729 199.516 18.7111 199.725C18.8518 199.935 19.0526 200.098 19.3136 200.213C19.5745 200.328 19.8841 200.385 20.2423 200.385ZM20.2423 196.655C20.5237 196.655 20.7732 196.599 20.9906 196.486C21.2107 196.374 21.3834 196.216 21.5087 196.014C21.6341 195.812 21.6981 195.576 21.7006 195.304C21.6981 195.038 21.6354 194.807 21.5126 194.61C21.3898 194.41 21.2196 194.257 21.0022 194.149C20.7847 194.039 20.5314 193.984 20.2423 193.984C19.9481 193.984 19.6909 194.039 19.4709 194.149C19.2509 194.257 19.0808 194.41 18.9605 194.61C18.8403 194.807 18.7814 195.038 18.784 195.304C18.7814 195.576 18.8415 195.812 18.9643 196.014C19.0897 196.216 19.2624 196.374 19.4824 196.486C19.7025 196.599 19.9557 196.655 20.2423 196.655Z" fill="black"/>
<path d="M3.17631 173.156C0.950581 170.806 -0.010423 168.027 8.51983e-05 164.94C0.0142618 160.777 0.226899 156.605 0.973245 152.509C2.03985 146.656 6.62919 142.861 12.5781 142.577C18.0861 142.313 23.3398 143.098 28.0564 146.183C31.4201 148.383 33.9413 151.472 36.6257 154.386C36.7641 154.537 36.8855 154.703 37.0275 154.85C41.3052 159.265 41.9145 164.237 39.3356 169.726C37.4009 173.844 34.8326 177.393 30.8075 179.734C27.1861 181.841 23.3342 182.36 19.3468 181.242C14.2872 179.825 9.47738 177.783 5.12376 174.783C4.45396 174.321 3.8644 173.743 3.17631 173.156Z" fill="#F0F2F5"/>
<path d="M15.4644 157.599V165.459H14.5126V158.597H14.4666L12.5477 159.871V158.904L14.5126 157.599H15.4644ZM17.9704 165.459L21.4857 158.505V158.443H17.4331V157.599H22.4682V158.489L18.9682 165.459H17.9704Z" fill="black"/>
<path d="M28.2717 110.261C32.2436 111.7 35.6698 114.036 38.9302 116.67C43.0881 120.028 44.2685 123.625 42.6683 128.706C41.7 131.78 40.5243 134.786 39.4798 137.837C37.6793 143.097 34.4691 144.861 29.0033 144.093C21.508 143.039 14.8314 139.722 8.91399 135.032C5.99101 132.716 5.15935 129.442 5.53939 125.786C5.95023 121.835 6.91882 118.108 9.1198 114.72C12.1608 110.039 16.6175 108.722 21.8436 109.098C23.9652 109.251 26.0493 109.654 28.1895 110.251C28.2816 110.268 28.2717 110.261 28.2717 110.261Z" fill="#F0F2F5"/>
<path d="M21.9485 121.935V129.795H20.9967V122.933H20.9507L19.0318 124.207V123.24L20.9967 121.935H21.9485ZM26.8185 129.902C26.4962 129.897 26.1738 129.836 25.8514 129.718C25.5291 129.601 25.2348 129.402 24.9688 129.123C24.7027 128.842 24.489 128.462 24.3279 127.984C24.1667 127.503 24.0861 126.899 24.0861 126.172C24.0861 125.476 24.1513 124.86 24.2818 124.322C24.4123 123.783 24.6016 123.328 24.8498 122.96C25.098 122.589 25.3973 122.308 25.7478 122.116C26.1009 121.924 26.4987 121.828 26.9413 121.828C27.3814 121.828 27.7728 121.916 28.1157 122.093C28.4611 122.267 28.7425 122.51 28.96 122.822C29.1774 123.134 29.3181 123.494 29.3821 123.9H28.4457C28.3587 123.547 28.1899 123.254 27.9391 123.021C27.6884 122.789 27.3558 122.672 26.9413 122.672C26.3324 122.672 25.8527 122.937 25.5022 123.467C25.1542 123.996 24.979 124.739 24.9764 125.696H25.0378C25.1811 125.479 25.3513 125.293 25.5483 125.14C25.7478 124.984 25.9678 124.864 26.2083 124.779C26.4488 124.695 26.7034 124.653 26.972 124.653C27.4223 124.653 27.8342 124.765 28.2078 124.99C28.5813 125.213 28.8807 125.521 29.1058 125.915C29.3309 126.307 29.4435 126.756 29.4435 127.262C29.4435 127.748 29.3348 128.193 29.1173 128.598C28.8998 128.999 28.5941 129.319 28.2001 129.557C27.8087 129.792 27.3481 129.908 26.8185 129.902ZM26.8185 129.058C27.1409 129.058 27.43 128.978 27.6858 128.816C27.9443 128.655 28.1477 128.439 28.296 128.168C28.447 127.897 28.5225 127.595 28.5225 127.262C28.5225 126.937 28.4495 126.642 28.3037 126.376C28.1604 126.107 27.9622 125.893 27.7089 125.735C27.4581 125.576 27.1716 125.497 26.8492 125.497C26.6062 125.497 26.3798 125.545 26.17 125.643C25.9602 125.737 25.776 125.868 25.6173 126.034C25.4613 126.2 25.3385 126.391 25.2489 126.606C25.1594 126.818 25.1146 127.042 25.1146 127.277C25.1146 127.59 25.1875 127.881 25.3333 128.152C25.4817 128.424 25.6839 128.642 25.9397 128.809C26.1981 128.975 26.491 129.058 26.8185 129.058Z" fill="black"/>
<path d="M14.9855 93.1801C18.1058 87.4835 21.2872 85.9387 27.2413 86.4799C33.115 87.014 37.8721 89.7369 41.4523 94.4448C45.3302 99.5444 44.6367 104.481 39.5743 108.409C36.5575 110.749 33.1423 110.956 29.5655 110.463C29.2017 110.413 28.8404 110.339 28.3741 110.27C28.2705 110.263 28.2808 110.27 28.2862 110.273C25.3495 109.257 22.4834 108.081 19.9825 106.172C17.4916 104.272 15.1455 102.269 14.3605 99.0073C13.8704 96.9707 13.9873 95.0025 14.9855 93.1801Z" fill="#F0F2F5"/>
<path d="M26.2709 93.8386V101.698H25.3192V94.8364H25.2731L23.3543 96.1106V95.1435L25.3192 93.8386H26.2709ZM30.9875 101.806C30.5372 101.806 30.1317 101.716 29.7709 101.537C29.4102 101.358 29.1211 101.112 28.9036 100.8C28.6861 100.488 28.5672 100.132 28.5467 99.7333H29.4677C29.5036 100.089 29.6647 100.383 29.9513 100.616C30.2404 100.846 30.5858 100.961 30.9875 100.961C31.3098 100.961 31.5964 100.886 31.8471 100.735C32.1004 100.584 32.2987 100.377 32.442 100.113C32.5878 99.8472 32.6607 99.5466 32.6607 99.2114C32.6607 98.8686 32.5852 98.5628 32.4343 98.2942C32.2859 98.023 32.0812 97.8094 31.8203 97.6533C31.5593 97.4972 31.2612 97.4179 30.9261 97.4154C30.6856 97.4128 30.4387 97.4499 30.1854 97.5267C29.9321 97.6009 29.7236 97.6968 29.5598 97.8145L28.6695 97.707L29.1454 93.8386H33.2287V94.6829H29.9436L29.6673 97.0009H29.7134C29.8745 96.873 30.0767 96.7668 30.3197 96.6824C30.5628 96.5979 30.8161 96.5557 31.0796 96.5557C31.5606 96.5557 31.9891 96.6709 32.3652 96.9011C32.7439 97.1288 33.0406 97.441 33.2555 97.8375C33.473 98.2341 33.5818 98.6869 33.5818 99.1961C33.5818 99.6975 33.4692 100.145 33.244 100.539C33.0214 100.931 32.7144 101.24 32.323 101.468C31.9315 101.693 31.4864 101.806 30.9875 101.806Z" fill="black"/>
<path d="M33.5082 86.1664C30.7042 84.9979 27.9766 83.9015 25.614 82.0701C20.7514 78.301 19.2734 70.8336 22.351 65.4797C23.7195 63.099 25.8141 61.6687 28.4023 61.0204C34.2201 59.5631 39.9363 59.1285 44.7962 63.631C47.0188 65.6902 48.9845 67.9928 50.6137 70.567C51.6346 72.1801 52.3895 73.8955 52.5349 75.8109C52.932 81.0423 50.0292 86.9994 44.2858 88.1219C41.4976 88.6668 38.7511 88.1901 36.1002 87.2018C35.2579 86.8878 34.4282 86.5401 33.5082 86.1664Z" fill="#F0F2F5"/>
<path d="M34.9169 70.0634V77.923H33.9652V71.0612H33.9191L32.0003 72.3354V71.3683L33.9652 70.0634H34.9169ZM36.9931 76.3112V75.5283L40.4471 70.0634H41.015V71.2761H40.6313L38.0216 75.4055V75.4669H42.6729V76.3112H36.9931ZM40.6927 77.923V76.0733V75.7087V70.0634H41.5984V77.923H40.6927Z" fill="black"/>
<path d="M38.3733 43.0952C40.3594 38.6361 43.5135 35.633 48.2755 34.6136C53.9213 33.4049 60.5022 36.2491 63.7948 41.3395C66.3089 45.2262 67.2774 49.5075 66.4242 54.1015C65.4378 59.4126 62.4664 62.2302 57.0418 62.6646C52.2983 63.0444 47.654 62.3797 43.3339 60.2107C37.9632 57.5141 35.5093 51.6798 37.3091 45.9334C37.6014 44.9999 37.989 44.0963 38.3733 43.0952Z" fill="#F0F2F5"/>
<path d="M50.0466 45.2064V53.0659H49.0948V46.2042H49.0488L47.1299 47.4783V46.5112L49.0948 45.2064H50.0466ZM54.9627 53.1734C54.4561 53.1734 54.0045 53.0864 53.608 52.9124C53.214 52.7385 52.9005 52.4967 52.6677 52.1871C52.4375 51.875 52.3121 51.513 52.2916 51.101H53.2587C53.2792 51.3543 53.3662 51.5731 53.5197 51.7573C53.6732 51.9389 53.874 52.0797 54.1222 52.1794C54.3704 52.2792 54.6454 52.3291 54.9473 52.3291C55.285 52.3291 55.5844 52.2703 55.8453 52.1526C56.1063 52.0349 56.311 51.8711 56.4594 51.6614C56.6078 51.4516 56.682 51.2085 56.682 50.9322C56.682 50.6431 56.6103 50.3885 56.467 50.1685C56.3238 49.9459 56.114 49.7719 55.8377 49.6466C55.5613 49.5212 55.2236 49.4585 54.8245 49.4585H54.1951V48.6142H54.8245C55.1366 48.6142 55.4104 48.5579 55.6458 48.4454C55.8837 48.3328 56.0692 48.1742 56.2022 47.9695C56.3378 47.7648 56.4056 47.5243 56.4056 47.248C56.4056 46.9819 56.3468 46.7504 56.2291 46.5534C56.1114 46.3564 55.9451 46.2029 55.7302 46.0929C55.5179 45.9828 55.2671 45.9278 54.978 45.9278C54.7068 45.9278 54.451 45.9777 54.2105 46.0775C53.9725 46.1747 53.7781 46.3167 53.6271 46.5035C53.4762 46.6877 53.3943 46.9103 53.3815 47.1713H52.4605C52.4758 46.7593 52.5999 46.3986 52.8327 46.089C53.0656 45.7769 53.37 45.5338 53.7461 45.3599C54.1248 45.1859 54.5405 45.0989 54.9934 45.0989C55.4795 45.0989 55.8965 45.1974 56.2445 45.3944C56.5924 45.5888 56.8598 45.846 57.0465 46.1658C57.2333 46.4856 57.3267 46.831 57.3267 47.202C57.3267 47.6446 57.2103 48.0219 56.9775 48.3341C56.7472 48.6462 56.4338 48.8624 56.0372 48.9826V49.044C56.5336 49.1259 56.9212 49.337 57.2 49.6773C57.4789 50.015 57.6183 50.4333 57.6183 50.9322C57.6183 51.3595 57.5019 51.7432 57.2691 52.0835C57.0389 52.4212 56.7242 52.6873 56.325 52.8817C55.9259 53.0762 55.4718 53.1734 54.9627 53.1734Z" fill="black"/>
<path d="M57.6495 25.8645C58.7865 23.3808 60.881 22.0926 63.1446 21.1017C66.5721 19.6013 69.7382 17.6959 72.7147 15.4472C73.5624 14.8067 74.4697 14.2531 75.4622 13.8522C78.1279 12.7755 80.3739 13.2969 82.055 15.6543C84.2671 18.7563 85.2367 22.3246 85.5037 26.0965C86.1388 35.0658 78.7279 39.6976 72.5331 40.379C71.5079 40.4918 70.4707 40.4029 69.503 40.0753C64.9371 38.5297 61.0945 35.9323 58.269 31.9855C56.9485 30.1411 56.6666 28.0897 57.6495 25.8645Z" fill="#F0F2F5"/>
<path d="M70.5798 23.5932V31.4528H69.6281V24.591H69.582L67.6632 25.8651V24.898L69.6281 23.5932H70.5798ZM72.8402 31.4528V30.762L75.4345 27.9221C75.739 27.5895 75.9897 27.3004 76.1867 27.0548C76.3837 26.8066 76.5295 26.5738 76.6242 26.3563C76.7214 26.1363 76.77 25.906 76.77 25.6655C76.77 25.3892 76.7035 25.15 76.5705 24.9479C76.44 24.7458 76.2609 24.5897 76.0332 24.4797C75.8055 24.3697 75.5497 24.3147 75.2657 24.3147C74.9638 24.3147 74.7002 24.3774 74.4751 24.5027C74.2525 24.6255 74.0798 24.7982 73.957 25.0208C73.8368 25.2434 73.7766 25.5044 73.7766 25.8037H72.8709C72.8709 25.3432 72.9771 24.9389 73.1895 24.591C73.4018 24.243 73.6909 23.9718 74.0568 23.7774C74.4252 23.583 74.8384 23.4857 75.2964 23.4857C75.7569 23.4857 76.165 23.583 76.5206 23.7774C76.8762 23.9718 77.1551 24.2341 77.3572 24.5641C77.5593 24.8942 77.6604 25.2613 77.6604 25.6655C77.6604 25.9547 77.6079 26.2374 77.503 26.5137C77.4007 26.7874 77.2216 27.0932 76.9658 27.4309C76.7125 27.766 76.3607 28.1754 75.9104 28.6589L74.1451 30.5471V30.6085H77.7985V31.4528H72.8402Z" fill="black"/>
<path d="M114.496 4.37228C114.143 3.15979 113.178 2.76312 112.072 2.64031C111.264 2.55046 110.44 2.54243 109.625 2.57038C105.46 2.71333 101.342 3.34401 97.2058 3.78404C94.0383 4.121 91.0553 5.00741 88.3165 6.66367C85.8353 8.16414 85.5616 9.35121 86.9866 11.8943C89.6092 16.5748 93.3168 20.0176 98.2175 22.2562C100.919 23.4903 103.386 23.4147 105.873 21.8057C107.905 20.4916 109.587 18.8849 110.696 16.7086C112.651 12.8718 114.294 8.93902 114.496 4.37228Z" fill="#155DFC"/>
<path d="M99.759 8.46325V16.3228H98.8072V9.46105H98.7612L96.8423 10.7352V9.76806L98.8072 8.46325H99.759ZM104.783 8.46325V16.3228H103.831V9.46105H103.785L101.866 10.7352V9.76806L103.831 8.46325H104.783Z" fill="white"/>
<path d="M128.895 18.3563C130.013 19.9108 131.453 21.092 133.101 22.0497C135.444 23.4101 137.747 23.4188 140.234 22.2987C145.193 20.065 148.942 16.6038 151.588 11.8741C152.967 9.40936 152.714 8.22412 150.294 6.71004C149.948 6.49355 149.586 6.30074 149.228 6.10424C146.148 4.41499 142.776 3.86876 139.338 3.55578C135.273 3.1856 131.239 2.41058 127.131 2.58368C124.547 2.69259 123.571 3.79759 124.132 6.29676C125.076 10.4961 126.39 14.574 128.895 18.3563Z" fill="#F0F2F5"/>
<path d="M133.739 16.3225V15.6317L136.333 12.7918C136.638 12.4592 136.889 12.1701 137.086 11.9245C137.283 11.6763 137.428 11.4435 137.523 11.226C137.62 11.006 137.669 10.7757 137.669 10.5352C137.669 10.2589 137.602 10.0197 137.469 9.81759C137.339 9.61547 137.16 9.4594 136.932 9.34939C136.704 9.23938 136.449 9.18437 136.165 9.18437C135.863 9.18437 135.599 9.24705 135.374 9.37242C135.151 9.49522 134.979 9.66792 134.856 9.8905C134.736 10.1131 134.676 10.3741 134.676 10.6734H133.77C133.77 10.2129 133.876 9.80863 134.088 9.46068C134.301 9.11273 134.59 8.84153 134.956 8.64709C135.324 8.45265 135.737 8.35543 136.195 8.35543C136.656 8.35543 137.064 8.45265 137.419 8.64709C137.775 8.84153 138.054 9.10378 138.256 9.43382C138.458 9.76386 138.559 10.131 138.559 10.5352C138.559 10.8243 138.507 11.1071 138.402 11.3834C138.3 11.6571 138.12 11.9629 137.865 12.3006C137.611 12.6357 137.26 13.0451 136.809 13.5286L135.044 15.4168V15.4782H138.697V16.3225H133.739ZM143.046 8.46288V16.3225H142.094V9.46068H142.048L140.129 10.7348V9.7677L142.094 8.46288H143.046Z" fill="black"/>
<path d="M164.127 17.2369C163.814 17.0431 163.508 16.8375 163.188 16.6574C160.619 15.2112 159.155 15.5988 157.775 18.1902C156.048 21.4315 155.345 24.857 155.594 28.5723C156.02 34.9251 165.376 40.3152 170.721 36.857C173.337 35.1643 176.041 33.6516 177.945 31.0939C179.678 28.765 179.445 26.8673 177.196 25.0179C176.37 24.3385 175.46 23.7747 174.487 23.3549C170.828 21.7763 167.445 19.7389 164.127 17.2369Z" fill="#155DFC"/>
<path d="M161.837 32.5331V31.8424L164.431 29.0025C164.736 28.6699 164.986 28.3808 165.183 28.1351C165.38 27.887 165.526 27.6542 165.621 27.4367C165.718 27.2167 165.767 26.9864 165.767 26.7459C165.767 26.4696 165.7 26.2304 165.567 26.0283C165.437 25.8261 165.257 25.6701 165.03 25.5601C164.802 25.45 164.546 25.395 164.262 25.395C163.96 25.395 163.697 25.4577 163.472 25.5831C163.249 25.7059 163.076 25.8786 162.954 26.1012C162.833 26.3238 162.773 26.5847 162.773 26.8841H161.867C161.867 26.4235 161.974 26.0193 162.186 25.6713C162.398 25.3234 162.687 25.0522 163.053 24.8578C163.422 24.6633 163.835 24.5661 164.293 24.5661C164.753 24.5661 165.162 24.6633 165.517 24.8578C165.873 25.0522 166.152 25.3144 166.354 25.6445C166.556 25.9745 166.657 26.3417 166.657 26.7459C166.657 27.035 166.604 27.3177 166.5 27.594C166.397 27.8678 166.218 28.1735 165.962 28.5112C165.709 28.8464 165.357 29.2558 164.907 29.7393L163.142 31.6274V31.6888H166.795V32.5331H161.837ZM168.38 32.5331V31.8424L170.974 29.0025C171.279 28.6699 171.53 28.3808 171.727 28.1351C171.924 27.887 172.069 27.6542 172.164 27.4367C172.261 27.2167 172.31 26.9864 172.31 26.7459C172.31 26.4696 172.243 26.2304 172.11 26.0283C171.98 25.8261 171.801 25.6701 171.573 25.5601C171.345 25.45 171.089 25.395 170.805 25.395C170.504 25.395 170.24 25.4577 170.015 25.5831C169.792 25.7059 169.62 25.8786 169.497 26.1012C169.377 26.3238 169.316 26.5847 169.316 26.8841H168.411C168.411 26.4235 168.517 26.0193 168.729 25.6713C168.942 25.3234 169.231 25.0522 169.597 24.8578C169.965 24.6633 170.378 24.5661 170.836 24.5661C171.297 24.5661 171.705 24.6633 172.06 24.8578C172.416 25.0522 172.695 25.3144 172.897 25.6445C173.099 25.9745 173.2 26.3417 173.2 26.7459C173.2 27.035 173.148 27.3177 173.043 27.594C172.941 27.8678 172.761 28.1735 172.506 28.5112C172.252 28.8464 171.9 29.2558 171.45 29.7393L169.685 31.6274V31.6888H173.338V32.5331H168.38Z" fill="white"/>
<path d="M173.873 61.2937C171.996 60.3845 170.817 58.8805 170.201 56.9215C168.287 50.8231 170.878 41.787 179.508 39.1104C184.138 37.6743 188.083 38.9296 191.218 42.5181C193.134 44.7109 194.166 47.3941 194.552 50.2873C195.065 54.1379 193.773 57.3595 190.431 59.281C185.326 62.2165 179.815 63.1078 173.873 61.2937Z" fill="#F0F2F5"/>
<path d="M176.966 53.0657V52.3749L179.561 49.5351C179.865 49.2025 180.116 48.9133 180.313 48.6677C180.51 48.4196 180.656 48.1867 180.75 47.9693C180.847 47.7492 180.896 47.519 180.896 47.2785C180.896 47.0022 180.83 46.763 180.697 46.5608C180.566 46.3587 180.387 46.2027 180.159 46.0926C179.932 45.9826 179.676 45.9276 179.392 45.9276C179.09 45.9276 178.826 45.9903 178.601 46.1157C178.379 46.2385 178.206 46.4112 178.083 46.6338C177.963 46.8563 177.903 47.1173 177.903 47.4166H176.997C176.997 46.9561 177.103 46.5519 177.316 46.2039C177.528 45.856 177.817 45.5848 178.183 45.3903C178.551 45.1959 178.964 45.0987 179.422 45.0987C179.883 45.0987 180.291 45.1959 180.647 45.3903C181.002 45.5848 181.281 45.847 181.483 46.1771C181.685 46.5071 181.786 46.8743 181.786 47.2785C181.786 47.5676 181.734 47.8503 181.629 48.1266C181.527 48.4004 181.348 48.7061 181.092 49.0438C180.839 49.379 180.487 49.7883 180.036 50.2719L178.271 52.16V52.2214H181.925V53.0657H176.966ZM186.165 53.1732C185.659 53.1732 185.207 53.0862 184.811 52.9122C184.417 52.7383 184.103 52.4965 183.87 52.1869C183.64 51.8748 183.515 51.5127 183.494 51.1008H184.461C184.482 51.3541 184.569 51.5729 184.722 51.7571C184.876 51.9387 185.077 52.0794 185.325 52.1792C185.573 52.279 185.848 52.3289 186.15 52.3289C186.488 52.3289 186.787 52.2701 187.048 52.1524C187.309 52.0347 187.514 51.8709 187.662 51.6611C187.81 51.4513 187.885 51.2083 187.885 50.932C187.885 50.6429 187.813 50.3883 187.67 50.1683C187.526 49.9457 187.317 49.7717 187.04 49.6463C186.764 49.521 186.426 49.4583 186.027 49.4583H185.398V48.614H186.027C186.339 48.614 186.613 48.5577 186.848 48.4452C187.086 48.3326 187.272 48.174 187.405 47.9693C187.54 47.7646 187.608 47.5241 187.608 47.2478C187.608 46.9817 187.549 46.7502 187.432 46.5532C187.314 46.3562 187.148 46.2027 186.933 46.0926C186.72 45.9826 186.47 45.9276 186.181 45.9276C185.909 45.9276 185.654 45.9775 185.413 46.0773C185.175 46.1745 184.981 46.3165 184.83 46.5033C184.679 46.6875 184.597 46.9101 184.584 47.171H183.663C183.678 46.7591 183.803 46.3984 184.035 46.0888C184.268 45.7767 184.573 45.5336 184.949 45.3596C185.327 45.1857 185.743 45.0987 186.196 45.0987C186.682 45.0987 187.099 45.1972 187.447 45.3942C187.795 45.5886 188.062 45.8458 188.249 46.1656C188.436 46.4854 188.529 46.8308 188.529 47.2017C188.529 47.6444 188.413 48.0217 188.18 48.3339C187.95 48.646 187.636 48.8622 187.24 48.9824V49.0438C187.736 49.1257 188.124 49.3368 188.403 49.6771C188.682 50.0148 188.821 50.4331 188.821 50.932C188.821 51.3592 188.705 51.743 188.472 52.0833C188.241 52.421 187.927 52.6871 187.528 52.8815C187.129 53.076 186.674 53.1732 186.165 53.1732Z" fill="black"/>
<path d="M190.684 67.3503C192.447 65.6507 194.524 64.5635 196.975 64.3666C199.3 64.1798 201.635 64.2471 203.903 64.8735C205.894 65.4235 207.807 66.1855 209.023 67.9919C211.506 71.6826 211.557 78.7149 206.655 82.0239C202.715 84.6839 198.391 86.49 193.809 87.5938C191.321 88.1934 188.851 87.7933 186.825 85.9249C183.397 82.7634 182.764 77.5135 185.363 73.6444C186.872 71.3981 188.598 69.3357 190.684 67.3503Z" fill="#F0F2F5"/>
<path d="M191.016 79.0033V78.3125L193.611 75.4726C193.915 75.14 194.166 74.8509 194.363 74.6053C194.56 74.3572 194.706 74.1243 194.8 73.9069C194.898 73.6868 194.946 73.4566 194.946 73.2161C194.946 72.9398 194.88 72.7006 194.747 72.4984C194.616 72.2963 194.437 72.1403 194.209 72.0302C193.982 71.9202 193.726 71.8652 193.442 71.8652C193.14 71.8652 192.876 71.9279 192.651 72.0533C192.429 72.1761 192.256 72.3488 192.133 72.5714C192.013 72.7939 191.953 73.0549 191.953 73.3542H191.047C191.047 72.8937 191.153 72.4895 191.366 72.1415C191.578 71.7936 191.867 71.5224 192.233 71.3279C192.601 71.1335 193.015 71.0363 193.472 71.0363C193.933 71.0363 194.341 71.1335 194.697 71.3279C195.052 71.5224 195.331 71.7846 195.533 72.1147C195.735 72.4447 195.836 72.8118 195.836 73.2161C195.836 73.5052 195.784 73.7879 195.679 74.0642C195.577 74.338 195.398 74.6437 195.142 74.9814C194.889 75.3166 194.537 75.7259 194.087 76.2095L192.321 78.0976V78.159H195.975V79.0033H191.016ZM197.207 77.3915V76.6086L200.66 71.1437H201.228V72.3564H200.845L198.235 76.4858V76.5472H202.886V77.3915H197.207ZM200.906 79.0033V77.1536V76.789V71.1437H201.812V79.0033H200.906Z" fill="black"/>
<path d="M200.41 107.846C201.298 107.962 202.196 108.226 203.073 108.168C208.45 107.813 213.002 105.587 216.669 101.697C218.84 99.393 219.518 96.5311 217.521 93.2891C215.321 89.7176 212.254 88.3475 208.091 88.967C202.001 89.8731 197.467 92.92 194.568 98.3324C193.69 99.9716 193.651 101.742 194.704 103.351C196.053 105.412 197.806 107.025 200.41 107.846Z" fill="#F0F2F5"/>
<path d="M200.742 101.698V101.007L203.337 98.1668C203.641 97.8342 203.892 97.5451 204.089 97.2995C204.286 97.0513 204.432 96.8185 204.526 96.6011C204.624 96.381 204.672 96.1508 204.672 95.9103C204.672 95.634 204.606 95.3947 204.473 95.1926C204.342 94.9905 204.163 94.8344 203.935 94.7244C203.708 94.6144 203.452 94.5594 203.168 94.5594C202.866 94.5594 202.602 94.6221 202.377 94.7474C202.155 94.8703 201.982 95.0429 201.859 95.2655C201.739 95.4881 201.679 95.7491 201.679 96.0484H200.773C200.773 95.5879 200.879 95.1837 201.092 94.8357C201.304 94.4878 201.593 94.2166 201.959 94.0221C202.327 93.8277 202.741 93.7305 203.199 93.7305C203.659 93.7305 204.067 93.8277 204.423 94.0221C204.778 94.2166 205.057 94.4788 205.259 94.8088C205.462 95.1389 205.563 95.506 205.563 95.9103C205.563 96.1994 205.51 96.4821 205.405 96.7584C205.303 97.0322 205.124 97.3379 204.868 97.6756C204.615 98.0108 204.263 98.4201 203.813 98.9037L202.047 100.792V100.853H205.701V101.698H200.742ZM209.742 101.805C209.292 101.805 208.886 101.715 208.525 101.536C208.165 101.357 207.875 101.112 207.658 100.799C207.441 100.487 207.322 100.132 207.301 99.7326H208.222C208.258 100.088 208.419 100.382 208.706 100.615C208.995 100.846 209.34 100.961 209.742 100.961C210.064 100.961 210.351 100.885 210.602 100.734C210.855 100.583 211.053 100.376 211.196 100.113C211.342 99.8465 211.415 99.5458 211.415 99.2107C211.415 98.8679 211.34 98.5621 211.189 98.2935C211.04 98.0223 210.836 97.8086 210.575 97.6526C210.314 97.4965 210.016 97.4172 209.68 97.4146C209.44 97.4121 209.193 97.4492 208.94 97.5259C208.687 97.6001 208.478 97.6961 208.314 97.8138L207.424 97.7063L207.9 93.8379H211.983V94.6822H208.698L208.422 97.0002H208.468C208.629 96.8722 208.831 96.7661 209.074 96.6816C209.317 96.5972 209.57 96.555 209.834 96.555C210.315 96.555 210.744 96.6701 211.12 96.9004C211.498 97.1281 211.795 97.4402 212.01 97.8368C212.227 98.2334 212.336 98.6862 212.336 99.1953C212.336 99.6968 212.224 100.145 211.998 100.539C211.776 100.93 211.469 101.24 211.077 101.467C210.686 101.692 210.241 101.805 209.742 101.805Z" fill="black"/>
<path d="M228.406 122.279C227.883 120.208 227.142 118.233 226.027 116.393C224.446 113.786 222.22 112.194 219.182 111.733C216.932 111.391 214.714 111.56 212.491 111.957C207.351 112.873 203.256 115.712 199.317 118.92C196.438 121.265 195.477 124.086 196.585 127.623C197.598 130.859 198.92 133.985 199.966 137.213C201.067 140.609 202.866 142.085 207.468 141.745C209.938 141.563 212.287 140.865 214.531 139.825C218.459 138.005 222.496 136.389 225.926 133.646C228.239 131.796 229.336 129.389 229.129 126.457C229.034 125.121 228.68 123.804 228.406 122.279Z" fill="#F0F2F5"/>
<path d="M207.226 129.795V129.105L209.82 126.265C210.125 125.932 210.375 125.643 210.572 125.397C210.769 125.149 210.915 124.916 211.01 124.699C211.107 124.479 211.156 124.249 211.156 124.008C211.156 123.732 211.089 123.493 210.956 123.29C210.826 123.088 210.647 122.932 210.419 122.822C210.191 122.712 209.935 122.657 209.651 122.657C209.349 122.657 209.086 122.72 208.861 122.845C208.638 122.968 208.465 123.141 208.343 123.363C208.222 123.586 208.162 123.847 208.162 124.146H207.257C207.257 123.686 207.363 123.281 207.575 122.934C207.787 122.586 208.077 122.314 208.442 122.12C208.811 121.925 209.224 121.828 209.682 121.828C210.143 121.828 210.551 121.925 210.906 122.12C211.262 122.314 211.541 122.577 211.743 122.907C211.945 123.237 212.046 123.604 212.046 124.008C212.046 124.297 211.994 124.58 211.889 124.856C211.786 125.13 211.607 125.436 211.351 125.773C211.098 126.109 210.746 126.518 210.296 127.001L208.531 128.89V128.951H212.184V129.795H207.226ZM216.379 129.903C216.056 129.898 215.734 129.836 215.412 129.719C215.089 129.601 214.795 129.403 214.529 129.124C214.263 128.842 214.049 128.462 213.888 127.984C213.727 127.503 213.646 126.899 213.646 126.173C213.646 125.477 213.712 124.86 213.842 124.323C213.973 123.783 214.162 123.329 214.41 122.96C214.658 122.589 214.958 122.308 215.308 122.116C215.661 121.924 216.059 121.828 216.502 121.828C216.942 121.828 217.333 121.917 217.676 122.093C218.021 122.267 218.303 122.51 218.52 122.822C218.738 123.134 218.878 123.494 218.942 123.901H218.006C217.919 123.548 217.75 123.255 217.499 123.022C217.249 122.789 216.916 122.673 216.502 122.673C215.893 122.673 215.413 122.937 215.062 123.467C214.715 123.997 214.539 124.74 214.537 125.697H214.598C214.741 125.479 214.912 125.294 215.109 125.14C215.308 124.984 215.528 124.864 215.769 124.779C216.009 124.695 216.264 124.653 216.532 124.653C216.983 124.653 217.394 124.765 217.768 124.991C218.142 125.213 218.441 125.521 218.666 125.915C218.891 126.307 219.004 126.756 219.004 127.262C219.004 127.749 218.895 128.194 218.678 128.598C218.46 129 218.154 129.319 217.76 129.557C217.369 129.793 216.908 129.908 216.379 129.903ZM216.379 129.058C216.701 129.058 216.99 128.978 217.246 128.817C217.505 128.656 217.708 128.439 217.856 128.168C218.007 127.897 218.083 127.595 218.083 127.262C218.083 126.938 218.01 126.642 217.864 126.376C217.721 126.107 217.522 125.894 217.269 125.735C217.018 125.576 216.732 125.497 216.409 125.497C216.166 125.497 215.94 125.546 215.73 125.643C215.52 125.738 215.336 125.868 215.178 126.034C215.022 126.201 214.899 126.391 214.809 126.606C214.72 126.819 214.675 127.042 214.675 127.278C214.675 127.59 214.748 127.882 214.894 128.153C215.042 128.424 215.244 128.643 215.5 128.809C215.758 128.975 216.051 129.058 216.379 129.058Z" fill="black"/>
<path d="M232.286 149.567C230.649 146.895 228.181 145.609 225.15 145.14C223.263 144.849 221.41 145.001 219.536 145.162C215.917 145.472 212.574 146.516 209.64 148.712C205.971 151.458 203.083 154.962 200.265 158.516C198.804 160.358 198.174 162.553 198.73 164.864C199.692 168.864 201.471 172.474 204.473 175.374C207.973 178.755 212.17 180.042 216.879 178.886C221.707 177.701 226.21 175.643 230.337 172.836C233.277 170.837 234.584 168.009 234.582 164.473C234.581 161.525 234.042 158.625 233.994 155.678C233.961 153.603 233.566 151.53 232.286 149.567Z" fill="#F0F2F5"/>
<path d="M213.71 165.458V164.768L216.305 161.928C216.609 161.595 216.86 161.306 217.057 161.06C217.254 160.812 217.4 160.579 217.494 160.362C217.592 160.142 217.64 159.912 217.64 159.671C217.64 159.395 217.574 159.156 217.441 158.953C217.31 158.751 217.131 158.595 216.903 158.485C216.676 158.375 216.42 158.32 216.136 158.32C215.834 158.32 215.57 158.383 215.345 158.508C215.123 158.631 214.95 158.804 214.827 159.026C214.707 159.249 214.647 159.51 214.647 159.809H213.741C213.741 159.349 213.847 158.945 214.06 158.597C214.272 158.249 214.561 157.977 214.927 157.783C215.295 157.589 215.709 157.491 216.167 157.491C216.627 157.491 217.035 157.589 217.391 157.783C217.746 157.977 218.025 158.24 218.227 158.57C218.43 158.9 218.531 159.267 218.531 159.671C218.531 159.96 218.478 160.243 218.373 160.519C218.271 160.793 218.092 161.099 217.836 161.436C217.583 161.772 217.231 162.181 216.781 162.665L215.015 164.553V164.614H218.669V165.458H213.71ZM220.499 165.458L224.015 158.504V158.443H219.962V157.599H224.997V158.489L221.497 165.458H220.499Z" fill="black"/>
<path d="M210.703 188.536C208.309 190.135 206.506 192.283 205.059 194.735C203.541 197.307 203.322 199.945 204.775 202.656C206.355 205.601 208.532 207.983 211.328 209.798C213.154 210.985 215.159 211.149 217.216 210.629C219.631 210.018 221.966 209.148 224.291 208.258C226.844 207.28 228.88 205.609 230.58 203.521C232.267 201.447 233.599 199.206 232.998 196.36C232.514 194.069 231.704 191.875 230.49 189.88C228.377 186.408 225.296 184.553 221.151 184.645C217.282 184.73 213.97 186.321 210.703 188.536Z" fill="#F0F2F5"/>
<path d="M213.71 201.121V200.43L216.305 197.591C216.609 197.258 216.86 196.969 217.057 196.723C217.254 196.475 217.4 196.242 217.494 196.025C217.592 195.805 217.64 195.574 217.64 195.334C217.64 195.058 217.574 194.818 217.441 194.616C217.31 194.414 217.131 194.258 216.903 194.148C216.676 194.038 216.42 193.983 216.136 193.983C215.834 193.983 215.57 194.046 215.345 194.171C215.123 194.294 214.95 194.467 214.827 194.689C214.707 194.912 214.647 195.173 214.647 195.472H213.741C213.741 195.012 213.847 194.607 214.06 194.259C214.272 193.911 214.561 193.64 214.927 193.446C215.295 193.251 215.708 193.154 216.166 193.154C216.627 193.154 217.035 193.251 217.391 193.446C217.746 193.64 218.025 193.902 218.227 194.233C218.429 194.563 218.53 194.93 218.53 195.334C218.53 195.623 218.478 195.906 218.373 196.182C218.271 196.456 218.092 196.762 217.836 197.099C217.583 197.434 217.231 197.844 216.78 198.327L215.015 200.215V200.277H218.669V201.121H213.71ZM222.771 201.229C222.244 201.229 221.778 201.135 221.374 200.948C220.973 200.759 220.659 200.499 220.434 200.169C220.209 199.837 220.098 199.458 220.1 199.033C220.098 198.701 220.163 198.394 220.296 198.112C220.429 197.828 220.61 197.592 220.841 197.402C221.074 197.211 221.333 197.089 221.62 197.038V196.992C221.244 196.895 220.944 196.684 220.722 196.359C220.499 196.031 220.389 195.659 220.392 195.242C220.389 194.843 220.49 194.486 220.695 194.171C220.9 193.856 221.181 193.608 221.539 193.427C221.9 193.245 222.311 193.154 222.771 193.154C223.227 193.154 223.633 193.245 223.992 193.427C224.35 193.608 224.631 193.856 224.836 194.171C225.043 194.486 225.148 194.843 225.15 195.242C225.148 195.659 225.034 196.031 224.809 196.359C224.586 196.684 224.291 196.895 223.922 196.992V197.038C224.206 197.089 224.462 197.211 224.69 197.402C224.918 197.592 225.099 197.828 225.235 198.112C225.371 198.394 225.44 198.701 225.442 199.033C225.44 199.458 225.324 199.837 225.097 200.169C224.872 200.499 224.558 200.759 224.157 200.948C223.757 201.135 223.296 201.229 222.771 201.229ZM222.771 200.384C223.127 200.384 223.434 200.327 223.692 200.212C223.951 200.097 224.15 199.934 224.291 199.724C224.432 199.514 224.503 199.269 224.506 198.987C224.503 198.691 224.426 198.428 224.275 198.201C224.125 197.973 223.919 197.794 223.658 197.663C223.399 197.533 223.104 197.468 222.771 197.468C222.436 197.468 222.137 197.533 221.873 197.663C221.612 197.794 221.406 197.973 221.255 198.201C221.107 198.428 221.034 198.691 221.036 198.987C221.034 199.269 221.102 199.514 221.24 199.724C221.381 199.934 221.581 200.097 221.842 200.212C222.103 200.327 222.413 200.384 222.771 200.384ZM222.771 196.654C223.053 196.654 223.302 196.598 223.519 196.485C223.739 196.373 223.912 196.215 224.038 196.013C224.163 195.811 224.227 195.574 224.229 195.303C224.227 195.037 224.164 194.806 224.041 194.609C223.919 194.409 223.748 194.256 223.531 194.148C223.314 194.038 223.06 193.983 222.771 193.983C222.477 193.983 222.22 194.038 222 194.148C221.78 194.256 221.61 194.409 221.489 194.609C221.369 194.806 221.31 195.037 221.313 195.303C221.31 195.574 221.37 195.811 221.493 196.013C221.619 196.215 221.791 196.373 222.011 196.485C222.231 196.598 222.485 196.654 222.771 196.654Z" fill="black"/>
</svg>
